<svg width="120" height="62" viewBox="0 0 120 62" fill="none" xmlns="http://www.w3.org/2000/svg">
    <path d="M20.4096 61.0476V24.4191H29.3572V27.679C30.604 26.3604 32.0953 25.3226 33.831 24.5656C35.5668 23.7842 37.437 23.3935 39.4417 23.3935C41.9841 23.3935 44.3188 23.9917 46.4457 25.1883C48.5971 26.3848 50.3084 27.9842 51.5796 29.9866C52.8753 27.9842 54.5866 26.3848 56.7135 25.1883C58.8404 23.9917 61.1751 23.3935 63.7176 23.3935C66.4068 23.3935 68.8393 24.0528 71.0151 25.3714C73.2153 26.6656 74.9633 28.4116 76.2589 30.6093C77.5791 32.7826 78.2392 35.2123 78.2392 37.8984V61.0476H69.2915V40.2792C69.2915 38.8629 68.937 37.5687 68.2281 36.3966C67.5436 35.2001 66.6146 34.2477 65.4411 33.5396C64.2921 32.807 62.9964 32.4407 61.554 32.4407C60.1117 32.4407 58.8037 32.7948 57.6303 33.5029C56.4813 34.1867 55.5523 35.1146 54.8433 36.2867C54.1343 37.4588 53.7799 38.7897 53.7799 40.2792V61.0476H44.8322V40.2792C44.8322 38.7897 44.49 37.4588 43.8055 36.2867C43.1209 35.1146 42.1919 34.1867 41.0185 33.5029C39.845 32.7948 38.5371 32.4407 37.0947 32.4407C35.6768 32.4407 34.3811 32.807 33.2076 33.5396C32.0342 34.2477 31.093 35.2001 30.384 36.3966C29.6995 37.5687 29.3572 38.8629 29.3572 40.2792V61.0476H20.4096Z" fill="white"/>
    <path d="M111.052 24.4191H120V61.0476H111.052L110.649 56.5057C109.647 58.1418 108.314 59.4726 106.652 60.4982C105.014 61.4994 103.071 62 100.821 62C98.1078 62 95.5653 61.4872 93.1939 60.4616C90.8225 59.436 88.7323 58.0197 86.9232 56.2127C85.1386 54.4057 83.7329 52.3178 82.7061 49.9492C81.7038 47.5805 81.2026 45.0409 81.2026 42.3304C81.2026 39.7176 81.6793 37.2635 82.6328 34.9681C83.6106 32.6727 84.9675 30.6581 86.7032 28.9244C88.4389 27.1906 90.4436 25.8354 92.7172 24.8586C94.9908 23.8818 97.4355 23.3935 100.051 23.3935C102.472 23.3935 104.635 23.9307 106.542 25.0051C108.473 26.0796 110.111 27.447 111.456 29.1075L111.052 24.4191ZM100.601 53.3923C102.508 53.3923 104.195 52.9161 105.662 51.9637C107.129 51.0114 108.278 49.7294 109.109 48.1177C109.94 46.4817 110.356 44.6869 110.356 42.7333C110.356 40.7554 109.94 38.9606 109.109 37.3489C108.278 35.7129 107.117 34.4187 105.625 33.4663C104.158 32.514 102.484 32.0378 100.601 32.0378C98.7189 32.0378 96.9954 32.5262 95.4308 33.5029C93.8906 34.4553 92.6561 35.7373 91.7271 37.3489C90.8225 38.9606 90.3703 40.7554 90.3703 42.7333C90.3703 44.7113 90.8348 46.5061 91.7637 48.1177C92.6927 49.7294 93.9273 51.0114 95.4675 51.9637C97.0321 52.9161 98.7434 53.3923 100.601 53.3923Z" fill="white"/>
    <path d="M4.40059 24.4191H13.3482V61.0476H4.40059V24.4191Z" fill="white"/>
    <path d="M16.6554 7.63095C17.0043 9.34128 16.7556 11.1194 15.9509 12.6688C15.1461 14.2181 13.834 15.4451 12.2332 16.1451C10.6323 16.845 8.83968 16.9757 7.15411 16.5152C5.46854 16.0547 3.99195 15.031 2.97058 13.6147C1.94922 12.1984 1.44482 10.4752 1.54149 8.7324C1.63817 6.9896 2.33007 5.33258 3.50183 4.03767C4.67359 2.74276 6.25437 1.88823 7.98055 1.61658C9.70673 1.34494 11.474 1.6726 12.9876 2.54492" stroke="white" stroke-width="2" stroke-linecap="round" stroke-linejoin="round"/>
    <path d="M6.87598 8.39405L9.16789 10.6833L16.8076 3.05238" stroke="white" stroke-width="2" stroke-linecap="round" stroke-linejoin="round"/>
</svg>
